<?xml version="1.0" standalone="no"?>
<!DOCTYPE svg PUBLIC "-//W3C//DTD SVG 20010904//EN"
 "http://www.w3.org/TR/2001/REC-SVG-20010904/DTD/svg10.dtd">
<svg version="1.0" xmlns="http://www.w3.org/2000/svg"
 width="200.000000pt" height="200.000000pt" viewBox="0 0 200.000000 200.000000"
 preserveAspectRatio="xMidYMid meet">

<g transform="translate(0.000000,200.000000) scale(0.100000,-0.100000)"
fill="#61656F" stroke="none">
<path d="M335 1915 c-18 -18 -25 -35 -25 -65 l0 -40 -103 0 c-73 0 -109 -4
-123 -14 -18 -14 -19 -36 -22 -850 l-2 -837 24 -24 25 -25 453 0 c506 0 498
-1 498 65 0 66 4 65 -457 65 l-413 0 0 590 0 590 809 0 810 0 3 -201 c3 -185
5 -202 22 -215 30 -21 72 -17 90 8 24 34 24 792 0 826 -14 20 -23 22 -125 22
l-109 0 0 44 c0 36 -5 48 -26 65 -34 27 -50 26 -79 -4 -18 -18 -25 -35 -25
-65 l0 -40 -247 2 -248 3 -3 47 c-7 109 -122 102 -122 -7 l0 -45 -250 0 -250
0 0 44 c0 36 -5 48 -26 65 -34 27 -50 26 -79 -4z m-25 -265 c0 -30 7 -47 25
-65 29 -30 45 -31 79 -4 21 17 26 29 26 65 l0 44 250 0 250 0 0 -45 c0 -109
115 -116 122 -7 l3 47 248 3 247 2 0 -40 c0 -30 7 -47 25 -65 29 -30 45 -31
79 -4 21 17 26 29 26 65 l0 44 60 0 60 0 0 -95 0 -95 -810 0 -810 0 0 95 0 95
60 0 60 0 0 -40z"/>
<path d="M300 1230 c-25 -25 -25 -51 -1 -81 18 -22 26 -24 124 -24 89 0 108 3
126 19 26 24 27 60 1 86 -17 17 -33 20 -125 20 -92 0 -108 -3 -125 -20z"/>
<path d="M681 1223 c-22 -27 -21 -56 4 -82 8 -8 43 -16 89 -19 127 -8 176 11
176 68 0 48 -29 60 -146 60 -99 0 -103 -1 -123 -27z"/>
<path d="M1067 1232 c-21 -23 -22 -66 -2 -86 9 -8 32 -18 51 -22 54 -10 183 1
199 17 25 26 26 55 4 82 -20 26 -23 27 -128 27 -92 0 -110 -3 -124 -18z"/>
<path d="M1450 1230 c-26 -26 -25 -62 1 -86 18 -16 37 -19 126 -19 98 0 106 2
124 24 24 30 24 56 -1 81 -17 17 -33 20 -125 20 -92 0 -108 -3 -125 -20z"/>
<path d="M300 980 c-25 -25 -25 -51 -1 -81 18 -22 26 -24 124 -24 89 0 108 3
126 19 26 24 27 60 1 86 -17 17 -33 20 -125 20 -92 0 -108 -3 -125 -20z"/>
<path d="M681 973 c-22 -27 -21 -56 4 -82 8 -8 43 -16 89 -19 127 -8 176 11
176 68 0 48 -29 60 -146 60 -99 0 -103 -1 -123 -27z"/>
<path d="M1390 922 c-85 -22 -143 -58 -208 -126 -166 -175 -158 -442 18 -610
69 -66 136 -100 232 -117 285 -51 550 215 499 501 -18 97 -60 176 -129 242
-68 65 -118 93 -204 113 -80 19 -127 18 -208 -3z m225 -133 c74 -28 146 -100
174 -174 78 -208 -69 -425 -289 -425 -173 0 -310 137 -310 310 0 220 217 367
425 289z"/>
<path d="M1457 749 c-27 -20 -27 -21 -27 -153 0 -91 4 -137 13 -148 16 -21
196 -138 212 -138 23 0 65 41 65 64 0 26 -22 48 -107 105 l-63 42 0 108 c0
113 -3 122 -46 135 -14 4 -30 -1 -47 -15z"/>
<path d="M300 730 c-25 -25 -25 -51 -1 -81 18 -22 26 -24 124 -24 89 0 108 3
126 19 26 24 27 60 1 86 -17 17 -33 20 -125 20 -92 0 -108 -3 -125 -20z"/>
<path d="M681 723 c-22 -27 -21 -56 4 -82 8 -8 43 -16 89 -19 127 -8 176 11
176 68 0 48 -29 60 -146 60 -99 0 -103 -1 -123 -27z"/>
<path d="M300 480 c-25 -25 -25 -51 -1 -81 18 -22 26 -24 124 -24 89 0 108 3
126 19 26 24 27 60 1 86 -17 17 -33 20 -125 20 -92 0 -108 -3 -125 -20z"/>
<path d="M681 473 c-22 -27 -21 -56 4 -82 8 -8 43 -16 89 -19 127 -8 176 11
176 68 0 48 -29 60 -146 60 -99 0 -103 -1 -123 -27z"/>
</g>
</svg>
